<?xml version="1.0" encoding="UTF-8" standalone="no"?>
<svg width="49px" height="40px" viewBox="0 0 49 40" version="1.1" xmlns="http://www.w3.org/2000/svg" xmlns:xlink="http://www.w3.org/1999/xlink">
    <!-- Generator: Sketch 3.6.1 (26313) - http://www.bohemiancoding.com/sketch -->
    <title>panda</title>
    <desc>Created with Sketch.</desc>
    <defs></defs>
    <g id="Page-1" stroke="none" stroke-width="1" fill="none" fill-rule="evenodd">
        <g id="Desktop-Copy" transform="translate(-42.000000, -72.000000)" fill="#000000">
            <g id="Group-2-Copy" transform="translate(42.000000, 72.000000)">
                <g id="panda">
                    <path d="M39.7571696,0.0564390244 C39.7370671,0.0767317073 39.605289,0.112536585 39.4672288,0.135219512 C38.9517623,0.22 38.9011677,0.232487805 38.9011677,0.274780488 C38.9011677,0.297365854 38.8344329,0.316585366 38.7561972,0.316585366 C38.6779615,0.316585366 38.6112268,0.339073171 38.6112268,0.365365854 C38.6112268,0.391414634 38.5789951,0.414146341 38.5421726,0.414146341 C38.448715,0.414146341 37.989932,0.66502439 37.5849329,0.937560976 C37.0923235,1.26907317 36.697859,1.64063415 36.25164,2.19346341 C36.0978748,2.38395122 35.9525661,2.56214634 35.9257949,2.59302439 C35.8991686,2.6237561 35.8341736,2.70917073 35.7808245,2.7835122 C35.7275237,2.85780488 35.6625286,2.94219512 35.635854,2.97165854 C35.6097594,3.00053659 35.5336016,3.10404878 35.4702012,3.19697561 C35.4067525,3.28990244 35.3094773,3.40726829 35.2584961,3.4524878 C35.2078531,3.49736585 35.1801154,3.53609756 35.1986716,3.53609756 C35.2178077,3.53609756 35.1616075,3.61043902 35.0721124,3.70336585 C34.9736775,3.80556098 34.8931223,3.85341463 34.864998,3.8264878 C34.8401114,3.80258537 34.7798521,3.78234146 34.7338481,3.78234146 C34.6877959,3.78234146 34.6487022,3.75990244 34.6487022,3.73356098 C34.6487022,3.70565854 34.607289,3.68478049 34.5520552,3.68478049 C34.4968215,3.68478049 34.4554083,3.66385366 34.4554083,3.636 C34.4554083,3.60809756 34.4139951,3.58721951 34.3587613,3.58721951 C34.3035276,3.58721951 34.2621144,3.56629268 34.2621144,3.53843902 C34.2621144,3.51053659 34.2207012,3.48965854 34.1654675,3.48965854 C34.1102337,3.48965854 34.0688205,3.46873171 34.0688205,3.44087805 C34.0688205,3.41487805 34.0365888,3.39209756 33.9997663,3.39209756 C33.9615424,3.39209756 33.8157022,3.33092683 33.673003,3.25502439 C33.5303521,3.17917073 33.3238659,3.08170732 33.210499,3.03668293 C33.0958274,2.99117073 32.9044665,2.90941463 32.7755878,2.85087805 C32.6467091,2.79234146 32.4918323,2.72487805 32.423503,2.69756098 C32.354497,2.66995122 32.2655819,2.62960976 32.2187081,2.60463415 C32.1713994,2.57941463 32.0944684,2.5604878 32.0392347,2.5604878 C31.984001,2.5604878 31.9425878,2.53960976 31.9425878,2.51170732 C31.9425878,2.48409756 31.8896736,2.46292683 31.8206193,2.46292683 C31.7515651,2.46292683 31.6626982,2.44463415 31.6158245,2.42073171 C31.3346785,2.2775122 30.8150079,2.10829268 29.9590059,1.88126829 C29.6506538,1.79946341 29.3271765,1.71385366 29.2341538,1.68941463 C29.1408412,1.66487805 28.9373028,1.61946341 28.7762406,1.58721951 C28.6151785,1.55492683 28.4433402,1.51926829 28.3896529,1.50697561 C28.2771558,1.48117073 27.768358,1.40556098 27.2759418,1.34146341 C25.5866982,1.12165854 23.9623047,1.12297561 22.2042485,1.34546341 C21.9925434,1.37229268 21.6969004,1.40702439 21.5507219,1.42229268 C21.4034803,1.43765854 21.2631972,1.46995122 21.2377791,1.49429268 C21.2125542,1.5184878 21.1158107,1.53843902 21.0238028,1.53843902 C20.9317465,1.53843902 20.7892406,1.55941463 20.7085404,1.58487805 C20.6271637,1.61058537 20.2483077,1.70931707 19.8617199,1.80565854 C19.0885444,1.99834146 18.2387278,2.24741463 18.1082544,2.31956098 C18.0622505,2.34502439 17.992713,2.36536585 17.951783,2.36536585 C17.9097416,2.36536585 17.8367249,2.38629268 17.7815394,2.41414634 C17.7263057,2.44204878 17.643431,2.48385366 17.5882456,2.51170732 C17.5330118,2.53960976 17.4639576,2.5604878 17.4271351,2.5604878 C17.3911824,2.5604878 17.2752544,2.60360976 17.1648353,2.65804878 C17.0543679,2.71253659 16.937425,2.75560976 16.9001677,2.75560976 C16.8633935,2.75560976 16.8128471,2.77434146 16.787429,2.79741463 C16.7622525,2.82034146 16.6539596,2.8735122 16.5481312,2.91497561 C16.2741371,3.02229268 15.8486006,3.21756098 15.3423156,3.4682439 C15.1030178,3.58678049 14.8780237,3.68478049 14.8453087,3.68478049 C14.8130769,3.68478049 14.7854842,3.70195122 14.7854842,3.72195122 C14.7854842,3.76482927 14.5507288,3.87990244 14.4633116,3.87990244 C14.4264892,3.87990244 14.3988964,3.89580488 14.3988964,3.91707317 C14.3988964,3.93717073 14.3482535,3.97887805 14.288429,4.008 C14.1769467,4.06229268 13.6164911,4.36780488 13.3587821,4.51473171 C13.0366095,4.69843902 12.6806105,4.9284878 12.6660168,4.96234146 C12.6575118,4.98219512 12.6177899,4.9995122 12.5810158,4.9995122 C12.5419704,4.9995122 12.4659576,5.04292683 12.4061331,5.09941463 C12.346212,5.15595122 12.2473422,5.2264878 12.178288,5.262 C12.1092821,5.2975122 12.008431,5.35497561 11.9459004,5.39439024 C11.8407002,5.46078049 11.8181815,5.4455122 11.4731036,5.07385366 C10.8088491,4.35839024 10.7002663,4.24707317 10.3811381,3.9542439 C9.98532051,3.59102439 9.86383531,3.48965854 9.82425838,3.48965854 C9.80971302,3.48965854 9.75998817,3.44785366 9.7192998,3.40136585 C9.62782347,3.29697561 8.78414398,2.71643902 8.57243886,2.61214634 C8.49420316,2.57365854 8.3726213,2.50204878 8.3032288,2.45365854 C8.23417456,2.4055122 8.14110355,2.36536585 8.09843393,2.36536585 C8.05702071,2.36536585 8.02019822,2.34243902 8.02019822,2.31658537 C8.02019822,2.28873171 7.9925572,2.26780488 7.95573471,2.26780488 C7.91958876,2.26780488 7.8084931,2.22765854 7.70261637,2.17639024 C7.44688856,2.0524878 6.85584418,1.85639024 6.49684911,1.77639024 C6.05961834,1.67892683 4.78547337,1.69253659 4.39361834,1.79882927 C3.45478994,2.05356098 2.75240828,2.47234146 2.02514004,3.21092683 C1.54480473,3.69868293 1.53847436,3.70595122 1.35354043,3.97746341 C1.29028501,4.07039024 1.221714,4.15995122 1.20426923,4.17239024 C1.17010454,4.19682927 0.993433925,4.4977561 0.890553254,4.70682927 C0.314295858,5.87795122 0.156664694,6.96931707 0.357883629,8.39556098 C0.415581854,8.80439024 0.691653846,9.75165854 0.822272189,9.98907317 C0.847883629,10.0355122 0.868324458,10.1057073 0.868324458,10.1470244 C0.868324458,10.1888293 0.889441815,10.2213659 0.916647929,10.2213659 C0.944240631,10.2213659 0.9649714,10.2492195 0.9649714,10.2863902 C0.9649714,10.35 1.23770907,10.922878 1.31666963,11.0250732 C1.33831854,11.0530732 1.45811243,11.2410732 1.58167554,11.440878 C1.70519034,11.6406341 1.82483925,11.8129268 1.84629487,11.8218049 C1.86717061,11.8304878 1.88538856,11.8705854 1.88538856,11.9077561 C1.88538856,11.9449268 1.90365483,11.9774634 1.92453057,11.9774634 C1.94613116,11.9774634 1.99459961,12.0378537 2.0326785,12.1121951 C2.0707574,12.1864878 2.15537179,12.3010732 2.22138166,12.3677073 C2.28637673,12.4333171 2.4040927,12.574439 2.47909073,12.6766341 C2.55452367,12.7794634 2.80711045,13.057561 3.03597041,13.2898537 C3.45247041,13.7126341 3.4545,13.7159512 3.40873767,13.8938049 C3.38365779,13.9913659 3.34495069,14.0726829 3.32359172,14.0726829 C3.30126627,14.0726829 3.28449803,14.1005366 3.28449803,14.1377073 C3.28449803,14.1741951 3.24482446,14.2863902 3.19413314,14.3932195 C3.02446943,14.7509756 2.60796943,15.6818049 2.60796943,15.7033659 C2.60796943,15.7160976 2.48638757,15.9867317 2.33871105,16.3026341 C2.19108284,16.6185366 2.0518146,16.9227805 2.03035897,16.9762927 C2.00924162,17.0290244 1.95743886,17.1528293 1.91762032,17.2457561 C1.87693195,17.3407317 1.71219724,17.733561 1.54944379,18.1238049 C1.38669034,18.5140488 1.23326331,18.8683902 1.20658876,18.9159024 C1.18044576,18.9623415 1.15826529,19.036 1.15826529,19.0761463 C1.15826529,19.1482439 1.13917751,19.1969756 1.01986686,19.4292195 C0.988843195,19.4896585 0.9649714,19.5784878 0.9649714,19.6336585 C0.9649714,19.6894146 0.946221893,19.7312195 0.921238659,19.7312195 C0.897560158,19.7312195 0.8669714,19.7823415 0.854503945,19.8427317 C0.841794872,19.9042927 0.734661736,20.2933659 0.615302761,20.7114634 C0.335413215,21.6919512 0.267422091,22.0169268 0.0980966469,23.1830244 C0.0306370809,23.6476098 0.0306854043,25.7253171 0.0981932939,26.1841463 C0.280614398,27.4245854 0.674499014,28.8451707 1.01783728,29.5012195 C1.04214398,29.5477073 1.06161834,29.6179024 1.06161834,29.6591707 C1.06161834,29.7010244 1.0827357,29.7335122 1.10994181,29.7335122 C1.13569822,29.7335122 1.15826529,29.7660488 1.15826529,29.8032195 C1.15826529,29.8697073 1.3419428,30.2399024 1.53393195,30.5604878 C1.58960059,30.6533659 1.67493984,30.8006829 1.7197357,30.8810244 C1.84397535,31.1040488 2.44168836,31.9892683 2.54157298,32.0981951 C2.58989645,32.1509756 2.69036095,32.2747317 2.76018836,32.3676585 C2.95638166,32.6287317 3.99321006,33.682439 4.3476144,33.9809268 C4.51790631,34.1243902 4.69621992,34.2837561 4.7387929,34.3304878 C4.78107594,34.3769756 4.84027219,34.416439 4.8676716,34.416439 C4.8952643,34.416439 4.92561144,34.4343902 4.93440631,34.4559512 C4.94334615,34.4778537 5.09087771,34.5916098 5.26576036,34.7114634 C5.440643,34.8313171 5.59126726,34.9399024 5.6041213,34.9553659 C5.65413609,35.0157561 6.62737081,35.6343902 6.67173176,35.6340488 C6.69801972,35.6338049 6.7177357,35.6545366 6.7177357,35.682439 C6.7177357,35.7102927 6.73648521,35.7321951 6.76146844,35.7335122 C6.78548521,35.7347805 6.99390434,35.8457561 7.22402071,35.9797561 C7.45408876,36.1137561 7.66144477,36.2225854 7.68420513,36.2213171 C7.70788363,36.22 7.75325937,36.246878 7.79008185,36.2840488 C7.86029586,36.3549268 8.81178501,36.8321463 9.51590631,37.1496585 C9.76902465,37.2638049 10.0910523,37.408439 10.2315769,37.4710244 C10.3742278,37.5346341 10.5083254,37.584878 10.5352899,37.584878 C10.5621578,37.584878 10.6204359,37.6044878 10.6664882,37.6289756 C10.7110907,37.6527317 10.8045483,37.6947805 10.8689635,37.7200488 C11.0806686,37.8030244 11.2807761,37.8885366 11.3660187,37.932439 C11.4096065,37.954878 11.4902584,37.975122 11.5363107,37.975122 C11.5823146,37.975122 11.6455217,37.997122 11.6697318,38.021561 C11.6951982,38.0472195 12.1483757,38.2120488 12.6822535,38.3898537 C13.9662564,38.8174146 13.9310769,38.8066829 14.0490828,38.8066829 C14.1043166,38.8066829 14.1629329,38.8267317 14.1779615,38.8508293 C14.1933767,38.8754634 14.2746085,38.9060976 14.362074,38.9201951 C14.6243738,38.962439 14.8032673,39.0056585 14.9051331,39.0513659 C14.9572742,39.0747805 15.0685148,39.1064878 15.1467505,39.1202927 C15.2269191,39.1343902 15.3883679,39.1657561 15.5080168,39.1904878 C16.713784,39.4392683 17.0676568,39.5066829 17.6112475,39.591122 C18.4442475,39.7204878 18.8672712,39.7757561 19.4521302,39.8317561 C21.7827712,40.0548293 25.1773018,40.0560488 27.7361262,39.8346829 C28.8867081,39.7351707 30.6057673,39.5300976 31.4087101,39.3966341 C32.4442337,39.2244878 32.67464,39.1833659 33.0793491,39.0984878 C33.2128185,39.0704878 33.4143274,39.0285366 33.5349428,39.0036585 C33.8110631,38.9467317 34.1315444,38.8747317 34.4047653,38.8082439 C34.5244142,38.779122 34.7033077,38.7420976 34.8051736,38.7253659 C34.9064112,38.7087805 35.000642,38.6763902 35.0145592,38.6533659 C35.0283797,38.6305854 35.0858846,38.611561 35.1411183,38.611561 C35.2914043,38.611561 37.2259379,38.0290732 37.414641,37.9269756 C37.4619497,37.9013659 37.5388807,37.8811707 37.5941144,37.8798537 C37.6493481,37.8785366 37.6907613,37.8566341 37.6907613,37.8287805 C37.6907613,37.8023415 37.7414043,37.78 37.8012288,37.78 C37.8610533,37.78 37.9327653,37.7629268 37.9577002,37.7428293 C37.9828767,37.722439 38.0911696,37.6772683 38.196998,37.6429268 C38.3028748,37.6085854 38.4340247,37.5615122 38.4869389,37.5389268 C39.5914684,37.0670732 40.0151686,36.8757561 40.6638146,36.5559024 C41.4323994,36.1769268 42.0904201,35.831122 42.1358925,35.7822927 C42.1798185,35.735122 42.4494635,35.5810732 42.536929,35.5531707 C42.5829329,35.5385366 42.6197554,35.5071707 42.6197554,35.4826341 C42.6197554,35.4578049 42.6519872,35.4385366 42.6934004,35.4385366 C42.7348136,35.4385366 42.7670454,35.4171707 42.7670454,35.3897561 C42.7670454,35.363122 42.7900473,35.3409756 42.81764,35.3409756 C42.8689596,35.3409756 43.3745197,35.0188293 43.4803481,34.9187317 C43.5171706,34.8839024 43.5586321,34.8567805 43.5770434,34.8554634 C43.5946815,34.8541951 43.6851913,34.7859512 43.7771992,34.7044878 C43.8692554,34.6230244 44.0065907,34.5190732 44.0809606,34.4745366 C44.1546055,34.430439 44.2167495,34.3761951 44.2167495,34.3560488 C44.2167495,34.3366829 44.2420227,34.318878 44.2696637,34.318878 C44.2982712,34.318878 44.3585306,34.2794146 44.4008136,34.2329268 C44.4433866,34.1861951 44.6217002,34.0273171 44.7919921,33.884439 C45.1394862,33.5929756 45.855785,32.8694146 46.2246381,32.4373659 C46.3555464,32.2840488 46.5019665,32.1126341 46.5500483,32.0563902 C46.5982751,32 46.6736114,31.8938049 46.7180207,31.8194634 C46.7624783,31.745122 46.8151026,31.6847317 46.8353984,31.6847317 C46.8550178,31.6847317 46.8722209,31.6522439 46.8722209,31.6150732 C46.8722209,31.5779024 46.8926134,31.5378049 46.9159536,31.529122 C46.9400187,31.5201463 47.07257,31.3270244 47.2109201,31.0993659 C47.518644,30.5929756 47.7156588,30.2362927 47.9448087,29.7706829 C47.9676657,29.7242439 47.9859803,29.6540488 47.9859803,29.6127317 C47.9859803,29.5709268 48.0070976,29.5383902 48.0342554,29.5383902 C48.0614615,29.5383902 48.0826272,29.5059024 48.0826272,29.4640976 C48.0826272,29.4227805 48.1012801,29.3525854 48.1246203,29.3060976 C48.3354073,28.8869756 48.6769093,27.708 48.8055947,26.9553659 C48.9475207,26.1254146 48.9708126,25.7706829 48.9708126,24.442 C48.9708126,23.0761463 48.9499852,22.6658537 48.8543047,22.1470244 C48.8300464,22.015561 48.7853471,21.7614146 48.7562081,21.5895122 C48.7066282,21.2968293 48.6448225,21.0041463 48.5090335,20.4187805 C48.4443767,20.1400488 48.276356,19.5433659 48.2264862,19.4153171 C48.2054172,19.3613171 48.1622643,19.2201951 48.1297909,19.0994146 C48.0698698,18.8763902 48.0055996,18.6988293 47.9313748,18.5511707 C47.9078895,18.5045366 47.889285,18.4234146 47.889285,18.3677073 C47.889285,18.3119512 47.8679744,18.2678049 47.8410099,18.2678049 C47.8152051,18.2678049 47.7926864,18.2352683 47.7926864,18.1980976 C47.7926864,18.0680488 47.0767742,16.455122 47.0056903,16.4250732 C46.985926,16.4167317 46.9688679,16.3653659 46.9688679,16.3142439 C46.9688679,16.2631707 46.9464941,16.2190244 46.9205444,16.2190244 C46.8939665,16.2190244 46.8722209,16.1772195 46.8722209,16.1260976 C46.8722209,16.0750244 46.8546312,16.0258537 46.8330789,16.0169268 C46.8113333,16.0079024 46.7358037,15.8821951 46.6628353,15.733561 C46.5898185,15.584878 46.5109063,15.4334634 46.48486,15.3920976 C46.3299349,15.1458537 45.9264339,14.4645854 45.8438008,14.3096098 C45.7892919,14.2074146 45.7270513,14.1238049 45.7055473,14.1238049 C45.6835602,14.1238049 45.6664536,14.0912683 45.6664536,14.0494634 C45.6664536,14.0076585 45.645288,13.975122 45.6181302,13.975122 C45.5917456,13.975122 45.5698067,13.9519024 45.5698067,13.924 C45.5698067,13.8957073 45.4742229,13.7381951 45.3555404,13.5709268 C45.1627781,13.2992683 44.9803087,13.0041463 44.7379665,12.5720976 C44.6884349,12.4838537 44.6493412,12.3823902 44.6493412,12.3421463 C44.6493412,12.3015122 44.6252761,12.2306341 44.5941075,12.1795122 C44.5522594,12.1109268 44.5550621,12.0517561 44.6056085,11.9356585 C44.6419961,11.852 44.6890631,11.7823415 44.7091657,11.7823415 C44.728785,11.7823415 44.7459882,11.7498049 44.7459882,11.7126341 C44.7459882,11.6754634 44.7653176,11.635561 44.7874014,11.6270732 C44.8698412,11.5955122 45.4974181,10.565122 45.7766312,10.0030244 C45.8302219,9.89507317 45.9218432,9.71034146 45.9816677,9.5895122 C46.1093866,9.33170732 46.3227347,8.70682927 46.4163373,8.31658537 C46.5062673,7.94156098 46.5022564,6.82995122 46.4091371,6.31892683 C46.3676272,6.09126829 46.3029221,5.7404878 46.2651815,5.53843902 C46.2044389,5.21321951 46.0155424,4.55307317 45.9089892,4.29336585 C45.8874369,4.24082927 45.8463136,4.14004878 45.819929,4.07502439 C45.6613314,3.684 45.5854635,3.5175122 45.3647219,3.07619512 C45.1206884,2.58839024 44.8607564,2.16331707 44.7874014,2.13209756 C44.7625631,2.12156098 44.7459882,2.09590244 44.7459882,2.06804878 C44.7459882,2.02580488 44.5467505,1.78931707 44.2841124,1.51985366 C44.2294586,1.4637561 44.078641,1.32965854 43.9498107,1.22253659 C43.820932,1.11541463 43.6860128,0.99804878 43.65064,0.962341463 C43.6138176,0.925170732 43.5862249,0.914243902 43.5862249,0.936829268 C43.5862249,0.959365854 43.5704231,0.955414634 43.5494024,0.927512195 C43.5289615,0.900390244 43.3837495,0.802634146 43.2226391,0.707463415 C42.9398984,0.540439024 42.840642,0.490487805 42.5461105,0.367073171 C42.4678748,0.334292683 42.3649941,0.287365854 42.3183136,0.263170732 C42.2715848,0.238926829 42.1802535,0.21902439 42.1157899,0.21902439 C42.0513748,0.21902439 41.9859931,0.200195122 41.9708195,0.177219512 C41.955501,0.154 41.8511706,0.120243902 41.7361124,0.101317073 C41.4323994,0.0513170732 39.7989694,0.0142439024 39.7571696,0.0564390244 L39.7571696,0.0564390244 Z M26.0701262,3.09868293 C26.9031262,3.17546341 27.8468836,3.29907317 27.9524221,3.34521951 C28.0061578,3.36868293 28.1411252,3.39946341 28.2561834,3.41443902 C28.7670592,3.48107317 28.8766568,3.50234146 28.9188915,3.54297561 C28.9446479,3.56770732 29.0339497,3.58721951 29.1214152,3.58721951 C29.2088323,3.58721951 29.2910789,3.60873171 29.3077988,3.636 C29.3244221,3.66307317 29.3929448,3.68478049 29.461999,3.68478049 C29.5928107,3.68478049 29.8669497,3.76 30.0188304,3.83756098 C30.0650759,3.86121951 30.1453895,3.87990244 30.2006233,3.87990244 C30.255857,3.87990244 30.3361706,3.89941463 30.3824162,3.92404878 C30.427502,3.94804878 30.6194428,4.01580488 30.8035069,4.07268293 C30.9876193,4.12956098 31.1858422,4.19731707 31.2384181,4.22136585 C31.2919122,4.2457561 31.431712,4.29765854 31.5514093,4.3375122 C31.8745,4.44502439 32.5730641,4.73629268 32.9734724,4.93034146 C33.0517081,4.96829268 33.1431844,4.9995122 33.1759961,4.9995122 C33.2081795,4.9995122 33.2432623,5.01668293 33.2519122,5.03668293 C33.2607554,5.05712195 33.6592308,5.2702439 34.1378264,5.51053659 C34.6164704,5.75082927 35.0148974,5.96502439 35.023789,5.98673171 C35.0329704,6.00931707 35.0743836,6.0262439 35.1204359,6.0262439 C35.1660049,6.0262439 35.2539053,6.06858537 35.3229112,6.12380488 C35.3919655,6.17902439 35.4708294,6.22136585 35.5047041,6.22136585 C35.5369359,6.22136585 35.5645286,6.24385366 35.5645286,6.27014634 C35.5645286,6.298 35.5842446,6.31892683 35.6105809,6.31892683 C35.650786,6.31892683 36.4297604,6.78902439 36.5586391,6.89107317 C36.5840089,6.91117073 36.6644675,6.95873171 36.7381124,6.99721951 C36.8117574,7.03565854 36.8715819,7.08458537 36.8715819,7.10639024 C36.8715819,7.12931707 36.9014941,7.14585366 36.9429073,7.14585366 C36.9843205,7.14585366 37.0142327,7.16634146 37.0142327,7.19463415 C37.0142327,7.22209756 37.0464645,7.24341463 37.0878777,7.24341463 C37.1292909,7.24341463 37.1615227,7.26478049 37.1615227,7.29219512 C37.1615227,7.31882927 37.1845247,7.34097561 37.2121174,7.34097561 C37.2400483,7.34097561 37.5665217,7.57146341 37.939289,7.85434146 C38.3120562,8.13721951 38.6281884,8.36770732 38.6434103,8.36770732 C38.6583422,8.36770732 38.7070039,8.40717073 38.749287,8.45365854 C38.7925365,8.50117073 38.9241696,8.6184878 39.0438185,8.71614634 C39.1634675,8.81380488 39.3249162,8.95078049 39.4050848,9.02273171 C39.4864132,9.09570732 39.63293,9.22117073 39.7387584,9.30843902 C40.0088383,9.53121951 41.3929675,10.9321463 41.6780759,11.2713171 C41.8108688,11.4292683 41.9908738,11.6306829 42.0766963,11.7172683 C42.1641134,11.805561 42.2331677,11.8937073 42.2331677,11.9170732 C42.2331677,11.9409268 42.2716331,12.0006829 42.3229043,12.056439 C42.3723876,12.1101951 42.5345128,12.3165854 42.6841706,12.5163415 C42.8338767,12.7160976 42.9980316,12.9256098 43.0500759,12.9832683 C43.1035217,13.0424878 43.1753304,13.1481951 43.2157288,13.2271707 C43.2542426,13.3023902 43.3442692,13.4339024 43.4113422,13.512878 C43.4784152,13.5918537 43.536645,13.6870244 43.5379014,13.7196098 C43.5391578,13.7521463 43.562498,13.78 43.5885444,13.78 C43.6161371,13.78 43.6358531,13.7999024 43.6345483,13.826439 C43.6332919,13.8518537 43.7920345,14.1238049 43.9843136,14.4257561 C44.176641,14.7277561 44.3687751,15.0450244 44.4077239,15.1249268 C44.4462377,15.2039024 44.4917584,15.2825854 44.5066903,15.2958049 C44.539502,15.3249756 45.430925,17.1435122 45.5398945,17.4037073 C45.5821775,17.5045854 45.6504586,17.6661951 45.6940464,17.7683902 C45.7376341,17.8705854 45.7878422,17.995122 45.8074132,18.0494634 C45.8416746,18.1445854 45.8628402,18.1980976 46.0000306,18.5372683 C46.0848383,18.7469756 46.4678984,19.8287805 46.5362761,20.0517561 C46.5690394,20.1586341 46.6127239,20.2910244 46.6329231,20.344439 C46.6527357,20.3969756 46.6813915,20.4977561 46.6950187,20.5628293 C46.7088876,20.6289268 46.7449852,20.7718537 46.7748491,20.8787317 C46.9597347,21.5403415 47.065998,22.1330732 47.1863235,23.1737073 C47.3291677,24.4095122 47.200144,26.0746341 46.8727525,27.2201951 C46.842212,27.3270244 46.8055345,27.4762439 46.7916657,27.55 C46.7777002,27.6243415 46.7467732,27.6972195 46.7226598,27.7126341 C46.6996095,27.7273171 46.678927,27.7822927 46.678927,27.8287805 C46.678927,27.9601463 46.2287456,29.0041463 45.9778018,29.4547805 C45.8587811,29.6684878 45.7631006,29.8600488 45.7631006,29.8845366 C45.7631006,29.9097561 45.7423698,29.9286341 45.7147771,29.9286341 C45.6867012,29.9286341 45.6664536,29.9588293 45.6664536,30.0006341 C45.6664536,30.0424878 45.6461578,30.0726829 45.6181302,30.0726829 C45.5899093,30.0726829 45.5698067,30.0959024 45.5698067,30.128439 C45.5698067,30.1869268 45.3186213,30.5465366 44.8916351,31.0993659 C44.7983225,31.2201463 44.6906095,31.3613171 44.650501,31.4152683 C44.5227821,31.5871707 43.1482692,32.9530244 43.1029901,32.9530244 C43.0782002,32.9530244 43.0017525,33.0087805 42.937289,33.0738049 C42.8728738,33.138878 42.7942998,33.1946341 42.7670454,33.1946341 C42.7394043,33.1946341 42.7164024,33.2125854 42.7164024,33.2340976 C42.7164024,33.2557561 42.6519872,33.3123902 42.5737515,33.359561 C42.4955158,33.4066829 42.4019615,33.4738049 42.3666371,33.5081951 C42.3309744,33.542878 42.108928,33.697561 41.8695819,33.8542927 C41.630284,34.0110732 41.4297899,34.1563902 41.4208501,34.1795122 C41.4120069,34.2024878 41.3633452,34.2213171 41.3127022,34.2213171 C41.2621075,34.2213171 41.2206943,34.2390732 41.2206943,34.2608293 C41.2206943,34.2825854 41.1608698,34.331561 41.0872249,34.37 C41.0145464,34.4079024 40.7880542,34.5370732 40.5901696,34.6533659 C40.1621686,34.9049268 39.0801095,35.4405854 39.0024053,35.4393659 C38.9701736,35.438878 38.9471716,35.4588293 38.9471716,35.4873171 C38.9471716,35.5147317 38.9149398,35.5360976 38.8735266,35.5360976 C38.832645,35.5360976 38.7631075,35.5558537 38.7170552,35.5805854 C38.5125986,35.6903902 37.8012288,35.9807317 37.3271755,36.1478049 C37.1154704,36.2223902 36.9197604,36.3029756 36.8945838,36.3258537 C36.8691174,36.3489756 36.8002564,36.3676585 36.7403836,36.3676585 C36.6805592,36.3676585 36.6188984,36.3894634 36.6023235,36.416439 C36.5856519,36.4436585 36.5103156,36.4652195 36.4320799,36.4652195 C36.3537959,36.4652195 36.2917002,36.4868293 36.2917002,36.514 C36.2917002,36.5407805 36.2272367,36.5627805 36.149001,36.5627805 C36.0707653,36.5627805 35.9928195,36.5848293 35.9764379,36.611561 C35.9596696,36.638878 35.8958826,36.6603415 35.8314675,36.6603415 C35.7670523,36.6603415 35.7042318,36.6797561 35.6888166,36.7044878 C35.6733531,36.7291707 35.5921696,36.758878 35.5047041,36.7718537 C35.4182535,36.7846829 35.1319369,36.8540488 34.864998,36.9268293 C33.7132081,37.240878 32.4672357,37.5015122 31.2154162,37.6902439 C30.1750118,37.847122 28.454068,38.0400976 26.9169467,38.1722439 C25.8124172,38.2671707 25.2325355,38.3178537 24.4041262,38.3919024 C23.9163008,38.4354634 23.3524625,38.4567317 23.074071,38.442 C22.8094517,38.428 22.3285365,38.4051707 22.0109546,38.3915122 C21.385069,38.3645854 20.124068,38.2536585 19.4981341,38.1704878 C19.286429,38.1423415 18.9471016,38.0980976 18.7480089,38.0726829 C18.5500759,38.0473659 18.2522584,38.0029268 18.0944822,37.975122 C17.9333718,37.9467317 17.6869221,37.9126341 17.5399221,37.898439 C17.3926321,37.8842439 17.2548619,37.8533171 17.2292505,37.8287805 C17.2034941,37.8040488 17.0819606,37.7836098 16.9531302,37.7822927 C16.8242515,37.7809756 16.7098215,37.7585366 16.6931016,37.7312195 C16.6769615,37.7049268 16.6079556,37.6834146 16.5434921,37.6845854 C16.4380986,37.6864878 16.2627811,37.6510732 15.8025483,37.5349268 C15.7088491,37.5112683 15.4366913,37.4449268 15.1973452,37.3874146 C14.9580473,37.3299024 14.664144,37.2536098 14.5438669,37.2178537 C14.4248462,37.182439 14.1595503,37.1043902 13.9616657,37.0465366 C13.4922515,36.9093659 12.9985306,36.7537073 12.8755473,36.704 C12.8226331,36.6826341 12.6914349,36.6376585 12.5856065,36.6045854 C12.4797298,36.5715122 12.3714852,36.5263415 12.3462604,36.5047317 C12.3220503,36.4839512 12.2588432,36.4652195 12.2128393,36.4652195 C12.166787,36.4652195 12.0861351,36.4443415 12.0425473,36.4210732 C11.9956252,36.3960976 11.9067584,36.3567805 11.8377525,36.3304878 C11.7686982,36.3041951 11.6638363,36.2618537 11.5961351,36.2329268 C11.53143,36.2053171 11.3982022,36.1540976 11.3061943,36.1214634 C11.2122051,36.0880976 11.0162535,36.0073659 10.8689635,35.9412683 C10.6108679,35.8255122 10.477785,35.7666341 10.1096085,35.6053659 C10.010642,35.5620488 9.7092002,35.4173659 9.43767061,35.282878 C9.16614103,35.1483902 8.9297426,35.0431707 8.91070316,35.0482927 C8.89002071,35.0538537 8.86460256,35.0408293 8.84715779,35.0157561 C8.8111568,34.9638537 8.02019822,34.514 7.9649645,34.514 C7.941286,34.514 7.92355128,34.493122 7.92355128,34.4652195 C7.92355128,34.4386341 7.90054931,34.416439 7.87290828,34.416439 C7.83081854,34.416439 6.88343688,33.8078537 6.80979191,33.7335122 C6.79717949,33.7207805 6.69932446,33.6503902 6.59349606,33.5779024 C6.48761933,33.5053659 6.34607988,33.3950244 6.28055325,33.334 C6.21502663,33.2729268 6.07343886,33.1565854 5.96761045,33.0767805 C5.73285503,32.8998049 4.60967258,31.7689268 4.44658087,31.5453659 C4.38042604,31.4546829 4.23086489,31.2526829 4.11981755,31.1040488 C4.00872189,30.9553659 3.89883432,30.8086829 3.87974655,30.7834634 C3.76691124,30.6347805 3.47779191,30.1702927 3.47779191,30.1377073 C3.47779191,30.1166829 3.43584714,30.047122 3.38114497,29.9774146 C3.3264428,29.9077561 3.28449803,29.8170244 3.28449803,29.7683902 C3.28449803,29.7219024 3.26758481,29.6835122 3.24767554,29.6847317 C3.22737968,29.6860488 3.17982939,29.6150732 3.14179882,29.5267805 C3.10400986,29.4389756 3.0032071,29.2132195 2.91888264,29.0273659 C2.77376726,28.7077073 2.46377219,27.8287805 2.35842702,27.4385366 C2.26806213,27.1037561 2.14536884,26.4907805 2.06549014,25.975122 C1.98802761,25.4753171 1.99049211,22.9460976 2.0689211,22.4397073 C2.10197436,22.226 2.14184122,21.9506829 2.15691815,21.8310732 C2.17223669,21.7102927 2.20408185,21.592 2.22829191,21.5662927 C2.25264694,21.5403902 2.27197633,21.4385366 2.27197633,21.3363415 C2.27197633,21.2340976 2.29338363,21.1394146 2.3202998,21.1226341 C2.34682939,21.1060488 2.36760848,21.0273659 2.36635207,20.9483902 C2.36509566,20.8694146 2.38379684,20.7666341 2.40776529,20.7207805 C2.43192702,20.6744878 2.47797929,20.539561 2.51079093,20.4187805 C2.60265385,20.0805366 2.62749211,20.0099512 2.96662623,19.1226341 C3.14063905,18.6673171 3.28449803,18.2637073 3.28449803,18.2306341 C3.28449803,18.1980976 3.30145957,18.1702439 3.32132051,18.1702439 C3.34185799,18.1702439 3.38684714,18.1005366 3.42318639,18.0122927 C3.52268442,17.7706829 4.16427515,16.5070732 4.38554832,16.1168293 C4.4408787,16.0192683 4.51447535,15.8883415 4.55008974,15.8241463 C4.58618738,15.7590732 4.62465286,15.6977561 4.63755523,15.6847805 C4.65011933,15.6720488 4.71366469,15.5616585 4.77793491,15.440878 C4.8421568,15.3200488 4.91087278,15.2096585 4.92976726,15.1969756 C4.94842012,15.1843902 5.00413708,15.0947317 5.05101085,15.0018537 C5.16582742,14.7741951 5.60938856,14.1056098 5.65925838,14.085122 C5.68134221,14.076 5.7006716,14.0355122 5.7006716,13.9983415 C5.7006716,13.9611707 5.72319034,13.9286829 5.74899507,13.9286829 C5.7741716,13.9286829 5.79731854,13.903122 5.79731854,13.8752195 C5.79731854,13.8462439 5.84680178,13.7590732 5.90546647,13.6847805 C5.96553254,13.6086341 6.12098915,13.3990732 6.25523176,13.2132195 C6.38947436,13.0273659 6.51830473,12.8539512 6.54517258,12.8229756 C6.57107396,12.793122 6.63727712,12.7068293 6.68782347,12.637122 C6.73836982,12.5674634 6.81742702,12.4650244 6.85811538,12.4164878 C6.89972189,12.366878 7.00588856,12.2376098 7.09282249,12.1307805 C7.17980473,12.0239024 7.31095464,11.8673171 7.38276331,11.7846341 C7.45505523,11.7014634 7.60041223,11.5314634 7.70653057,11.406 C8.12564004,10.9106829 9.61255325,9.44712195 10.146431,9.0044878 C11.0852594,8.22614634 11.4392771,7.94795122 11.8630256,7.65570732 C12.1299645,7.47160976 12.3730799,7.29536585 12.4061331,7.262 C12.4402978,7.2275122 12.5073708,7.18868293 12.5626045,7.17141463 C12.6177899,7.15414634 12.6592515,7.12131707 12.6592515,7.09478049 C12.6592515,7.06863415 12.6914349,7.04829268 12.7328481,7.04829268 C12.7743097,7.04829268 12.8064931,7.02697561 12.8064931,6.9995122 C12.8064931,6.97165854 12.8262091,6.95073171 12.8525454,6.95073171 C12.8778185,6.95073171 13.1171647,6.8084878 13.3841036,6.63482927 C13.6509941,6.46117073 13.8851696,6.31892683 13.9041124,6.31892683 C13.9236834,6.31892683 13.9915779,6.27658537 14.0606321,6.22136585 C14.1296381,6.16614634 14.2195197,6.12380488 14.2676982,6.12380488 C14.3137505,6.12380488 14.3528442,6.10136585 14.3528442,6.07502439 C14.3528442,6.04668293 14.3827564,6.0262439 14.4241696,6.0262439 C14.4656312,6.0262439 14.4955434,6.0057561 14.4955434,5.97746341 C14.4955434,5.94956098 14.5369566,5.92868293 14.5921903,5.92868293 C14.6473757,5.92868293 14.6888373,5.9077561 14.6888373,5.87990244 C14.6888373,5.85307317 14.7302505,5.83112195 14.7808452,5.83112195 C14.8314882,5.83112195 14.8804882,5.81439024 14.8897663,5.79395122 C14.9106903,5.7477561 16.4422544,4.99268293 16.7920197,4.85609756 C16.8447406,4.8355122 16.9922239,4.77082927 17.1165118,4.71380488 C17.2407515,4.65678049 17.3558097,4.60926829 17.3696302,4.60926829 C17.3836923,4.60926829 17.4869596,4.56756098 17.6020178,4.51536585 C17.8291864,4.41239024 18.2003107,4.27478049 18.7480089,4.0904878 C18.9458935,4.02390244 19.1556174,3.95087805 19.2081933,3.93029268 C19.4244892,3.84546341 19.6562968,3.78234146 19.7512525,3.78234146 C19.8064862,3.78234146 19.8650542,3.76229268 19.8801312,3.73819512 C19.8955464,3.7135122 19.9767781,3.6817561 20.0642436,3.66619512 C20.1488097,3.65112195 20.2989507,3.6255122 20.3909586,3.61043902 C20.4830148,3.59536585 20.6056598,3.56336585 20.6578974,3.54073171 C20.7108116,3.51785366 20.8420099,3.4842439 20.9478383,3.46643902 C21.0547781,3.44843902 21.2377791,3.41473171 21.357428,3.39102439 C21.886715,3.28604878 22.9122357,3.14073171 23.3824231,3.104 C24.1325966,3.04541463 25.4639566,3.04278049 26.0701262,3.09868293 L26.0701262,3.09868293 Z" id="Fill-1"></path>
                    <path d="M34.8604073,17.3448293 C34.436997,17.4038537 34.2599882,17.4465366 34.2310424,17.4965854 C34.2177535,17.519561 34.1539665,17.538439 34.089503,17.538439 C34.0250878,17.538439 33.9721736,17.560439 33.9721736,17.5872195 C33.9721736,17.6150732 33.9445325,17.636 33.9077101,17.636 C33.8202929,17.636 33.5855858,17.7510732 33.5855858,17.7939512 C33.5855858,17.8148293 33.553354,17.831122 33.5119408,17.831122 C33.4705276,17.831122 33.4382959,17.8514146 33.4382959,17.877561 C33.4382959,17.903122 33.3968826,17.9370244 33.3462396,17.9529756 C33.0969389,18.0314146 32.5079241,18.769561 32.2573185,19.3177561 C32.0300049,19.8148293 32.0300049,19.8148293 31.9260128,20.442 C31.7981489,21.2132195 31.9204073,22.5457073 32.1810158,23.2201951 C32.2016499,23.273561 32.2577051,23.4292195 32.3048205,23.5639512 C32.3925276,23.8148293 32.8549349,24.8097073 32.9044665,24.854 C32.9196884,24.8676098 32.9629862,24.939122 33.0011134,25.0134634 C33.0391923,25.0877561 33.0876607,25.1481463 33.1092613,25.1481463 C33.1307653,25.1481463 33.148355,25.19 33.148355,25.2410732 C33.148355,25.2921951 33.16493,25.3413171 33.1851775,25.3502439 C33.20557,25.3592683 33.3293264,25.5198049 33.4626509,25.7102927 C33.8789093,26.3049756 34.6906953,27.1456098 35.1779408,27.4865854 C35.269997,27.5510244 35.3591055,27.6185854 35.3718629,27.6336585 C35.5080868,27.7941951 36.6736972,28.4141463 36.8393501,28.4141463 C36.8807633,28.4141463 36.9260907,28.4354634 36.9429073,28.4629268 C36.9598688,28.4905366 37.032644,28.5117073 37.1108797,28.5117073 C37.1891154,28.5117073 37.2599576,28.5298049 37.274358,28.5535122 C37.3173176,28.6243415 37.6585296,28.6670244 38.3857012,28.6925366 C38.822932,28.7078537 39.0753254,28.6974634 39.1082337,28.6626829 C39.1361164,28.6333171 39.2417032,28.6092683 39.3429892,28.6092683 C39.4442268,28.6092683 39.5270533,28.5873171 39.5270533,28.5604878 C39.5270533,28.5336585 39.5684665,28.5117073 39.6191095,28.5117073 C39.7350858,28.5117073 40.1989911,28.2669268 40.488932,28.0527317 C40.7420503,27.8657561 41.1824221,27.4070732 41.2704191,27.2387317 C41.3044389,27.1737073 41.3432909,27.112439 41.3587544,27.0994634 C41.5083156,26.9739512 41.8279753,26.1098537 41.9482041,25.5059024 C42.0327702,25.0812683 42.0485237,24.8694146 42.0276963,24.4373659 C41.9871529,23.5964878 41.7502712,22.6234146 41.4147613,21.9193659 C41.3616055,21.8078537 41.3173412,21.6853659 41.3173412,21.6499024 C41.3173412,21.6127317 41.2966105,21.584878 41.2690178,21.584878 C41.2413767,21.584878 41.2206943,21.5430732 41.2206943,21.4873171 C41.2206943,21.431561 41.2048925,21.3897561 41.1838718,21.3897561 C41.163286,21.3897561 41.1165089,21.3200488 41.0778018,21.2318049 C40.9842475,21.0184878 40.6271854,20.4652683 40.3312041,20.0750244 C40.1101726,19.7835122 39.2555237,18.8973659 38.9195789,18.6112195 C38.5708767,18.3142927 37.7735878,17.8377561 37.3501775,17.6731707 C37.2857623,17.6481463 37.1923047,17.6062927 37.1477022,17.5825366 C37.1032446,17.558878 37.021143,17.538439 36.9705,17.538439 C36.9199053,17.538439 36.8623037,17.5158049 36.8462604,17.4896585 C36.8301203,17.4633171 36.7496134,17.440878 36.6713777,17.440878 C36.593142,17.440878 36.4882801,17.4205366 36.4435809,17.3966829 C36.3248984,17.3334146 35.2055819,17.2967317 34.8604073,17.3448293" id="Fill-2"></path>
                    <path d="M13.9156617,17.9081463 C13.8493619,17.9195122 13.6441321,17.9547317 13.455429,17.9870732 C13.027428,18.0605366 12.3242732,18.3107317 11.9919043,18.5079024 C11.8538442,18.5898049 11.7178619,18.6580488 11.6927821,18.6580488 C11.665141,18.6580488 11.6467298,18.6766341 11.6467298,18.7044878 C11.6467298,18.7310732 11.6053166,18.7639024 11.5500828,18.7811707 C11.4948491,18.7983902 11.4268097,18.8372195 11.3913402,18.8717561 C11.3561124,18.9059512 11.2693718,18.9787317 11.1911361,19.0397073 C10.9748402,19.2081463 10.4290266,19.6983415 10.3435424,19.800878 C10.3012594,19.851561 10.2231203,19.9402927 10.1715592,19.996 C9.90085108,20.2886829 9.23055621,21.3145854 9.23055621,21.4361951 C9.23055621,21.4640976 9.20861736,21.4873171 9.18223274,21.4873171 C9.15464004,21.4873171 9.13390927,21.529122 9.13390927,21.584878 C9.13390927,21.6406341 9.11815582,21.6828293 9.09708679,21.6833171 C9.06098915,21.6841951 8.94061538,21.9193659 8.94061538,21.9890732 C8.94061538,22.0097073 8.8998787,22.119122 8.84889744,22.2352683 C8.67140533,22.6398537 8.64260454,22.7277073 8.50319132,23.2898537 C8.10906509,24.8787317 8.2083215,26.1376585 8.83019625,27.4385366 C8.90128008,27.5871707 8.97656805,27.7152683 8.99816864,27.7242439 C9.01904438,27.7329268 9.03726233,27.7730244 9.03726233,27.8101951 C9.03726233,27.8473659 9.05446548,27.8798537 9.07408481,27.8798537 C9.09442899,27.8798537 9.14666667,27.9402439 9.19068935,28.0145854 C9.27322584,28.1539512 9.56654931,28.4729268 9.75061341,28.623561 C10.5805207,29.3024878 11.6421391,29.5690732 12.7328481,29.3723902 C13.124075,29.3018537 13.7796795,29.1015122 14.0076696,28.982878 C14.2101933,28.8775122 14.5583639,28.6991707 14.6750168,28.6410732 C14.7348412,28.6112683 14.7854842,28.5689756 14.7854842,28.548878 C14.7854842,28.5276098 14.8130769,28.5117073 14.8498994,28.5117073 C14.8853205,28.5117073 14.9557278,28.4740488 15.0063708,28.4280488 C15.0573037,28.3818049 15.195074,28.2704878 15.3147229,28.178878 C15.6828994,27.897122 16.4826045,27.0462927 16.6612081,26.7462927 C16.7054724,26.6719512 16.7579034,26.611561 16.7782475,26.611561 C16.79893,26.611561 16.81507,26.5790732 16.81507,26.5372683 C16.81507,26.4954146 16.8341578,26.4629268 16.8587544,26.4629268 C16.8830611,26.4629268 16.9139882,26.4257561 16.9282919,26.3792683 C16.9555464,26.2910244 17.1096499,26.0181951 17.1556055,25.976878 C17.1978402,25.938878 17.4647791,25.3525854 17.5879073,25.0273659 C17.6494231,24.8647805 17.7155296,24.6913171 17.7365986,24.637122 C17.8366765,24.3799024 18.0000582,23.6894146 18.0543254,23.2944878 C18.1067081,22.913561 18.0952554,21.7661463 18.035431,21.3943902 C17.9217258,20.6882439 17.6655148,19.9899512 17.3416992,19.503561 C17.1963422,19.2852195 16.5192821,18.5604878 16.4606657,18.5604878 C16.4453471,18.5604878 16.3410168,18.4996585 16.2259586,18.4236585 C15.978784,18.2603902 15.5770227,18.0851707 15.2456686,17.9961463 C14.9971893,17.9293659 14.1275118,17.8718049 13.9156617,17.9081463" id="Fill-3"></path>
                    <path d="M24.4731805,26.0801463 C23.7184162,26.1356585 23.4176992,26.174878 23.3640118,26.2249268 C23.3385454,26.2486829 23.2512732,26.2678049 23.1684467,26.2678049 C23.085572,26.2678049 22.9982998,26.286439 22.9728333,26.3096098 C22.9474152,26.3326829 22.8071321,26.3803415 22.6598905,26.4159024 C22.1536538,26.5381951 21.7606874,26.7718537 21.6120444,27.0389756 C21.5034615,27.2340976 21.5734822,27.7808293 21.7072416,27.782 C21.7270542,27.7821463 21.7447406,27.8101951 21.7455621,27.8426829 C21.7486065,27.9626829 22.6046568,28.5117073 22.7887209,28.5117073 C22.8255434,28.5117073 22.8577751,28.5290244 22.8577751,28.548878 C22.8577751,28.5917561 23.0924822,28.7068293 23.1799477,28.7068293 C23.2167702,28.7068293 23.2443629,28.7277073 23.2443629,28.7556098 C23.2443629,28.7834634 23.2719556,28.8043902 23.3087781,28.8043902 C23.4914408,28.8043902 24.2223333,29.4408293 24.5838412,29.9147317 C24.699431,30.0662439 24.7037318,30.0912683 24.6469034,30.2817073 C24.5302505,30.6727805 24.0037179,31.099561 23.1937199,31.4596585 C22.9130089,31.5844878 22.6495493,31.7064878 22.6023373,31.7335122 C22.5563333,31.7599024 22.484428,31.7822927 22.4458659,31.7822927 C22.4044527,31.7822927 22.3745404,31.8027805 22.3745404,31.8310732 C22.3745404,31.8572683 22.3308077,31.8798537 22.280213,31.8798537 C22.22957,31.8798537 22.1719684,31.9024878 22.155925,31.9286341 C22.1398817,31.9548293 22.0822801,31.9774146 22.0316854,31.9774146 C21.9810424,31.9774146 21.9373097,32.0000488 21.9373097,32.0261951 C21.9373097,32.0536585 21.9051262,32.0749756 21.863713,32.0749756 C21.8239911,32.0749756 21.6956923,32.118878 21.5852732,32.1702439 C21.4721479,32.2228293 21.1641341,32.3567317 20.8972436,32.4693171 C19.6960187,32.9760488 19.4894359,33.1067805 19.1925848,33.5477073 C19.0048964,33.826439 18.986002,34.0663415 19.1437781,34.166439 C19.2726568,34.2481951 20.3297811,34.2552195 20.4093698,34.174878 C20.4360444,34.1479512 20.501426,34.1237561 20.5474783,34.1237561 C20.5951736,34.1237561 20.7384527,34.0773171 20.8626923,34.021561 C20.9869803,33.9658049 21.1344635,33.8993171 21.1871844,33.8752195 C21.2403402,33.8509268 21.4908974,33.7537561 21.7440158,33.6591707 C21.9971824,33.5646341 22.2529103,33.4653659 22.3123964,33.4385366 C22.3706262,33.4122439 22.4757781,33.3678537 22.5402416,33.3423415 C22.8347732,33.2256098 22.9342712,33.1833659 23.0142465,33.1409756 C23.0578343,33.1178537 23.1385345,33.0981463 23.1845385,33.0993659 C23.2305424,33.1005854 23.2937978,33.0803415 23.3180079,33.0565854 C23.3675878,33.008 24.1510079,32.732 24.740071,32.555561 C25.0393383,32.4659024 25.2233057,32.4462439 25.7801854,32.4443415 C26.1529527,32.4430244 26.5228205,32.4563415 26.6040039,32.4739512 C26.8202998,32.5209268 27.8743797,32.849561 28.0674803,32.9302439 C28.1595365,32.9687317 28.2730483,32.9995122 28.3229181,32.9995122 C28.3735611,32.9995122 28.4126548,33.0207805 28.4126548,33.0482927 C28.4126548,33.0750732 28.4656174,33.0980976 28.5300325,33.0993659 C28.5944477,33.1006341 28.6608925,33.1226341 28.6772742,33.1481463 C28.6933659,33.1730732 28.7509191,33.1946341 28.8015621,33.1946341 C28.8522051,33.1946341 28.9343067,33.214439 28.9787643,33.2373171 C29.2502939,33.3773659 30.5996302,33.822878 30.8518304,33.8557561 C31.4547623,33.9343415 31.4912465,33.9300488 31.6848304,33.7581463 C31.8426548,33.6180488 31.8637722,33.5732683 31.8597613,33.3874146 C31.8572002,33.2712683 31.8312988,33.1676585 31.8022081,33.1574634 C31.7746154,33.1477561 31.7492939,33.114439 31.7492939,33.0877561 C31.7492939,32.9608293 31.3258836,32.6090244 31.026713,32.4874634 C30.8518304,32.4163902 30.665785,32.3396098 30.6125325,32.3165854 C30.5599566,32.2938049 30.3617337,32.227122 30.1776213,32.1702439 C29.9935572,32.1133171 29.8005533,32.045561 29.754211,32.021561 C29.7085454,31.9979024 29.6253323,31.9774146 29.5747377,31.9774146 C29.5240947,31.9774146 29.4665414,31.9548293 29.4504497,31.9286341 C29.4337298,31.9013171 29.3699428,31.8798537 29.3054793,31.8798537 C29.2410641,31.8798537 29.1772771,31.8583902 29.1605089,31.8310732 C29.143789,31.8037561 29.080002,31.7822927 29.0155385,31.7822927 C28.9511233,31.7822927 28.8873363,31.7608293 28.870568,31.7335122 C28.8535099,31.7056585 28.8061529,31.6847317 28.7601489,31.6847317 C28.7163195,31.6847317 28.5254418,31.6222927 28.3413294,31.5477073 C28.1572653,31.473122 27.849928,31.3722927 27.6671203,31.3264878 C27.0550069,31.173122 26.7236529,31.0541951 26.7236529,30.9879024 C26.7236529,30.9666341 26.6960602,30.9507317 26.6592377,30.9507317 C26.5106913,30.9507317 26.252499,30.2770732 26.3387564,30.1144878 C26.3631114,30.0684878 26.383069,29.9890244 26.383069,29.9379512 C26.383069,29.8403902 26.626571,29.5383902 26.7052416,29.5383902 C26.7299349,29.5383902 26.7949783,29.4975122 26.8456213,29.4501463 C26.8969408,29.4020976 27.0825996,29.2739512 27.2528915,29.1690732 C27.4231834,29.0641463 27.5763688,28.9656585 27.5888846,28.9530244 C27.6202949,28.9213171 27.7821785,28.8282927 28.099712,28.6594146 C28.6105878,28.3877561 28.7070897,28.3166829 29.0891834,27.9309756 C29.4251765,27.5918537 29.5264142,27.4616585 29.5264142,27.3688293 C29.5264142,27.3270244 29.5475316,27.2944878 29.5747377,27.2944878 C29.6006391,27.2944878 29.6230611,27.2503902 29.6230611,27.1992683 C29.6230611,27.1481463 29.6443718,27.090439 29.6690651,27.0747317 C29.7519398,27.022 29.7197564,26.8345854 29.6047949,26.6998537 C29.4874655,26.5623902 29.1214152,26.3653659 28.983355,26.3653659 C28.9373028,26.3653659 28.8871913,26.3436585 28.870568,26.3165854 C28.8536548,26.2889268 28.7808314,26.2678049 28.7025957,26.2678049 C28.62436,26.2678049 28.5515848,26.2466341 28.5346233,26.2190244 C28.5182899,26.1923415 28.3252377,26.1702439 28.1089418,26.1702439 C27.8925976,26.1702439 27.6359034,26.1502927 27.5428323,26.1262439 C27.3083185,26.0657073 25.1174773,26.0327805 24.4731805,26.0801463" id="Fill-4"></path>
                </g>
            </g>
        </g>
    </g>
</svg>